<svg width="65" height="65" viewBox="0 0 65 65" fill="none" xmlns="http://www.w3.org/2000/svg">
<path d="M9.01318 26.0322H57.5519V52.5035C57.5519 53.819 57.0293 55.0807 56.0991 56.0109C55.1689 56.9412 53.9072 57.4638 52.5916 57.4638H13.9735C12.6579 57.4638 11.3963 56.9412 10.466 56.0109C9.53579 55.0807 9.01318 53.819 9.01318 52.5035V26.0322Z" stroke="#3DBEBE" stroke-width="3" stroke-linecap="round" stroke-linejoin="round"/>
<path d="M40.6655 41.1888L30.1585 34.5967C30.0584 34.5337 29.9432 34.4987 29.825 34.4954C29.7068 34.492 29.5899 34.5205 29.4864 34.5777C29.3829 34.635 29.2967 34.719 29.2368 34.821C29.1768 34.9229 29.1453 35.0391 29.1456 35.1573V48.3415C29.1453 48.4598 29.1768 48.5759 29.2368 48.6779C29.2967 48.7798 29.3829 48.8638 29.4864 48.9211C29.5899 48.9783 29.7068 49.0068 29.825 49.0035C29.9432 49.0001 30.0584 48.9651 30.1585 48.9021L40.6655 42.31C40.7606 42.2507 40.8391 42.168 40.8935 42.07C40.9479 41.9719 40.9764 41.8616 40.9764 41.7494C40.9764 41.6373 40.9479 41.5269 40.8935 41.4289C40.8391 41.3308 40.7606 41.2482 40.6655 41.1888V41.1888ZM50.8095 8.01848L49.3795 13.7981L42.304 15.0994L43.734 9.32118L36.3579 10.6781L34.9265 16.4576L27.851 17.759L29.281 11.9808L21.9048 13.3376L20.4748 19.1159L13.3993 20.4186L14.8293 14.6403L8.80191 15.7494C8.58824 15.7885 8.38438 15.8694 8.202 15.9874C8.01962 16.1054 7.86229 16.2581 7.73902 16.437C7.61576 16.6159 7.52898 16.8173 7.48364 17.0297C7.43831 17.2421 7.43532 17.4614 7.47483 17.675L9.01316 26.0343L56.7502 17.2498L55.2119 8.89056C55.1726 8.67697 55.0917 8.47321 54.9736 8.29092C54.8556 8.10862 54.7028 7.95137 54.524 7.82813C54.3452 7.70489 54.1438 7.61809 53.9315 7.57268C53.7191 7.52727 53.4999 7.52414 53.2863 7.56348L50.8095 8.01848Z" stroke="#3DBEBE" stroke-width="3" stroke-linecap="round" stroke-linejoin="round"/>
</svg>
